<svg width="23" height="17" viewBox="0 0 23 17" fill="none" xmlns="http://www.w3.org/2000/svg">
<path fill-rule="evenodd" clip-rule="evenodd" d="M4.37763 15.2045C5.62074 15.6932 6.95541 15.9466 8.31918 15.9466C15.7202 15.9466 19.0489 9.703 19.0489 5.26971C19.0489 5.10432 19.0431 4.94473 19.0352 4.78724L19.0209 4.49861L19.2574 4.33111C19.504 4.15677 19.7406 3.96558 19.965 3.75911C19.757 3.80019 19.5464 3.83443 19.3336 3.86129L16.822 4.17837L18.9955 2.88636C19.2527 2.73361 19.486 2.55032 19.6914 2.34174C19.3384 2.4613 18.9748 2.55769 18.6023 2.63196L18.3138 2.68937L18.1127 2.47605C17.4655 1.78975 16.5532 1.3963 15.6091 1.3963C13.7214 1.3963 12.1851 2.92638 12.1851 4.80778C12.1851 5.10169 12.211 5.35767 12.2634 5.58836L12.4179 6.26466L11.7215 6.23147C8.68592 6.08452 5.82131 4.75459 3.73993 2.55242C3.63461 2.88319 3.58169 3.22608 3.58169 3.57739C3.58169 4.71824 4.15059 5.77745 5.1037 6.41161L6.60454 7.40919L4.79994 7.37601C4.41414 7.36863 4.02676 7.30701 3.64996 7.19482C3.96114 8.47893 4.97987 9.49179 6.2976 9.76041L8.47159 10.2034L6.33094 10.7843C6.00018 10.8739 5.64191 10.9234 5.26352 10.9318C5.87212 11.9025 6.93689 12.5293 8.11332 12.5546L9.5967 12.5862L8.4282 13.4963C7.25494 14.4091 5.84883 14.9975 4.37763 15.2045ZM8.31918 17C6.04834 17 3.85053 16.3601 1.96337 15.1497L0 13.8893L2.31741 14.1842C2.58413 14.2179 2.86356 14.2337 3.19749 14.2337C4.42314 14.2337 5.63397 13.9277 6.70721 13.3578C5.40482 12.9033 4.34958 11.862 3.90292 10.5025L3.61398 9.62399L3.94579 9.69773C3.04666 8.8708 2.49311 7.68887 2.49311 6.40792V5.51673L3.13822 5.83486C2.74078 5.16068 2.52327 4.38431 2.52327 3.57739C2.52327 2.78365 2.72914 2.02572 3.13557 1.32414L3.51925 0.661544L4.004 1.25462C5.78903 3.43624 8.35993 4.82569 11.1362 5.12907C11.1298 5.02531 11.1266 4.91839 11.1266 4.80778C11.1266 2.34595 13.1376 0.342886 15.6091 0.342886C16.7416 0.342886 17.8397 0.77584 18.6668 1.54009C19.4061 1.36522 20.1015 1.0866 20.736 0.709475L21.9331 0L21.5113 1.32203C21.3938 1.69073 21.2287 2.04046 21.0213 2.36228C21.1266 2.32173 21.2309 2.27959 21.3335 2.23429L23 1.50691L21.9855 3.01066C21.4552 3.79598 20.8234 4.47016 20.1036 5.01899C20.1063 5.10116 20.1073 5.18491 20.1073 5.2697C20.1073 11.0356 15.698 17 8.31918 17Z" fill="white"/>
</svg>
