<svg width="12" height="22" viewBox="0 0 12 22" fill="none" xmlns="http://www.w3.org/2000/svg">
<path fill-rule="evenodd" clip-rule="evenodd" d="M3.75068 20.932H6.65881V10.4655H9.49737L10.3943 8.26322H6.65881V5.11258C6.65881 4.0969 7.49973 3.27026 8.53361 3.27026H9.32234V1.06801H7.20239C5.29933 1.06801 3.75068 2.58886 3.75068 4.45842V8.26322H1.08715V10.4655H3.75068V20.932ZM7.74597 22H2.66353V11.5335H0V7.1952H2.66353V4.45842C2.66353 2.00039 4.69976 0 7.20239 0H10.4095V4.33827H8.53361C8.09929 4.33827 7.74597 4.68537 7.74597 5.11258V7.1952H12L10.2339 11.5335H7.74597V22Z" fill="white"/>
</svg>
