<svg width="17" height="17" viewBox="0 0 17 17" fill="none" xmlns="http://www.w3.org/2000/svg">
<path fill-rule="evenodd" clip-rule="evenodd" d="M11.8224 2H5.482C3.5668 2 2 3.5672 2 5.4824V11.8228C2 13.738 3.5668 15.3048 5.482 15.3048H11.8224C13.7376 15.3048 15.3048 13.738 15.3048 11.8228V5.4824C15.3048 3.5672 13.7376 2 11.8224 2ZM11.8224 2.8C13.3016 2.8 14.5048 4.0036 14.5048 5.4824V11.8228C14.5048 13.3016 13.3016 14.5048 11.8224 14.5048H5.482C4.0032 14.5048 2.8 13.3016 2.8 11.8228V5.4824C2.8 4.0036 4.0032 2.8 5.482 2.8H11.8224Z" fill="#003B5C"/>
<path fill-rule="evenodd" clip-rule="evenodd" d="M8.65232 5.37622C6.84312 5.37622 5.37592 6.84302 5.37592 8.65222C5.37592 10.4622 6.84312 11.929 8.65232 11.929C10.4619 11.929 11.9287 10.4622 11.9287 8.65222C11.9287 6.84302 10.4619 5.37622 8.65232 5.37622ZM8.65232 6.17622C10.0179 6.17622 11.1287 7.28702 11.1287 8.65222C11.1287 10.0178 10.0179 11.129 8.65232 11.129C7.28672 11.129 6.17592 10.0178 6.17592 8.65222C6.17592 7.28702 7.28672 6.17622 8.65232 6.17622Z" fill="#003B5C"/>
<path fill-rule="evenodd" clip-rule="evenodd" d="M12.3611 3.84338C11.7535 3.84338 11.2611 4.33578 11.2611 4.94378C11.2611 5.55138 11.7535 6.04378 12.3611 6.04378C12.9687 6.04378 13.4611 5.55138 13.4611 4.94378C13.4611 4.33578 12.9687 3.84338 12.3611 3.84338ZM12.3611 4.64338C12.5267 4.64338 12.6611 4.77818 12.6611 4.94378C12.6611 5.10938 12.5267 5.24378 12.3611 5.24378C12.1955 5.24378 12.0611 5.10938 12.0611 4.94378C12.0611 4.77818 12.1955 4.64338 12.3611 4.64338Z" fill="#003B5C"/>
</svg>
