<svg width="18" height="18" viewBox="0 0 18 18" fill="none" xmlns="http://www.w3.org/2000/svg">
<path fill-rule="evenodd" clip-rule="evenodd" d="M8.64799 4.38904C6.29603 4.38904 4.38867 6.29588 4.38867 8.64784C4.38867 11.0008 6.29603 12.9077 8.64799 12.9077C11.0005 12.9077 12.9073 11.0008 12.9073 8.64784C12.9073 6.29588 11.0005 4.38904 8.64799 4.38904ZM8.64799 5.42904C10.4233 5.42904 11.8673 6.87308 11.8673 8.64784C11.8673 10.4231 10.4233 11.8677 8.64799 11.8677C6.87271 11.8677 5.42867 10.4231 5.42867 8.64784C5.42867 6.87308 6.87271 5.42904 8.64799 5.42904Z" fill="white"/>
<path fill-rule="evenodd" clip-rule="evenodd" d="M13.4694 2.39636C12.6795 2.39636 12.0394 3.03648 12.0394 3.82688C12.0394 4.61676 12.6795 5.25688 13.4694 5.25688C14.2593 5.25688 14.8994 4.61676 14.8994 3.82688C14.8994 3.03648 14.2593 2.39636 13.4694 2.39636ZM13.4694 3.43636C13.6847 3.43636 13.8594 3.6116 13.8594 3.82688C13.8594 4.04216 13.6847 4.21688 13.4694 4.21688C13.2541 4.21688 13.0794 4.04216 13.0794 3.82688C13.0794 3.6116 13.2541 3.43636 13.4694 3.43636Z" fill="white"/>
<path fill-rule="evenodd" clip-rule="evenodd" d="M12.7691 0H4.5266C2.03684 0 0 2.03736 0 4.52712V12.7696C0 15.2594 2.03684 17.2962 4.5266 17.2962H12.7691C15.2589 17.2962 17.2962 15.2594 17.2962 12.7696V4.52712C17.2962 2.03736 15.2589 0 12.7691 0ZM12.7691 1.04C14.6921 1.04 16.2562 2.60468 16.2562 4.52712V12.7696C16.2562 14.6921 14.6921 16.2562 12.7691 16.2562H4.5266C2.60416 16.2562 1.04 14.6921 1.04 12.7696V4.52712C1.04 2.60468 2.60416 1.04 4.5266 1.04H12.7691Z" fill="white"/>
</svg>
