<svg width="221" height="65" viewBox="0 0 221 65" fill="none" xmlns="http://www.w3.org/2000/svg">
<path fill-rule="evenodd" clip-rule="evenodd" d="M91.5522 61.1396C91.3833 62.1223 90.6824 64.5 86.6452 64.5C83.8653 64.5 81.6775 62.9472 81.6775 59.7325C81.6775 57.1606 83.2853 55.244 86.7781 55.244C90.5904 55.244 91.2493 57.6548 91.4063 58.2293L91.4194 58.2766H89.7033C89.6066 57.9737 88.9298 56.7238 86.8748 56.7238C84.4456 56.7238 83.4302 58.095 83.4302 59.9267C83.4302 61.9528 84.8926 63.0199 86.7781 63.0199C88.7846 63.0199 89.667 61.8192 89.8364 61.1396H91.5522ZM96.472 55.4624H94.7557V64.2816H96.472V60.4848H102.37V64.2816H104.087V55.4624H102.37V58.9561H96.472V55.4624ZM114.022 64.2816H115.739V55.4624H114.022V64.2816ZM118.821 56.9425H122.749V64.2816H124.465V56.9425H128.394V55.4624H118.821V56.9425ZM137.422 55.4624H145.509V56.9425H139.139V58.9926H144.614V60.4727H139.139V64.2816H137.422V55.4624ZM150.235 55.4624H148.518V64.2816H156.605V62.7533H150.235V55.4624ZM156.073 55.4624L160.364 60.7517V64.2816H162.08V60.7517L166.371 55.4624H164.256L161.222 59.1989L158.176 55.4624H156.073ZM69.772 56.9425H73.7004V64.2816H75.4164V56.9425H79.3451V55.4624H69.772V56.9425ZM65.0342 55.4624H63.0757L58.7487 64.2816H60.5738L61.5045 62.2556H66.569L67.4874 64.2816H69.3004L65.0342 55.4624ZM64.0548 56.8453L65.8919 60.7758H62.2174L64.0548 56.8453ZM47.0482 55.4624H45.3321L47.9185 64.2816H49.5984L51.2789 58.022H51.3027L52.9709 64.2816H54.6147L57.177 55.4624H55.4971L53.8171 61.516H53.7928L52.0885 55.4624H50.4447L48.7645 61.5281H48.7404L47.0482 55.4624Z" fill="#E74832"/>
<path fill-rule="evenodd" clip-rule="evenodd" d="M160.343 34.9638H165.36V1.76915H160.343V34.9638ZM159.726 1.14917V35.5833L161.922 37.7874H168.174V3.35358L165.978 1.14917H159.726ZM184.224 10.2963C184.278 10.5407 184.306 10.7883 184.306 11.0364C184.306 12.8655 182.568 14.411 181.66 14.4513H179.359V9.77768H183.051L183.111 9.77741C183.339 9.7817 183.566 9.8088 183.791 9.85977C184.006 9.90806 184.175 10.08 184.224 10.2963ZM180.855 6.95302L176.546 6.95382V15.071H181.356V15.0766L181.648 15.0718C182.302 15.0605 183.119 14.5881 183.781 13.8388C184.208 13.3557 184.923 12.3494 184.923 11.0364C184.923 8.78479 183.098 6.95302 180.855 6.95302ZM144.981 34.9635V35.2527H144.975V34.9635H134.861V1.76915H144.187L144.296 1.76862C149.255 1.82737 153.272 5.89521 153.272 10.8865C153.272 12.9997 152.528 15.0651 151.176 16.7026L150.989 16.9285L151.217 17.1126C153.604 19.0331 154.973 21.8844 154.973 24.9349C154.973 30.4646 150.491 34.9635 144.981 34.9635ZM154.569 19.5193C154.502 19.4508 154.202 19.1496 154.128 19.0793C154.126 19.0554 154.125 19.0364 154.124 19.0173C154.122 18.9983 154.121 18.9792 154.119 18.9553C155.39 17.2666 156.086 15.1987 156.086 13.0909C156.086 10.4409 155.038 7.96039 153.142 6.11359C153.074 6.0433 153.005 5.97409 152.942 5.91346C152.874 5.8429 152.806 5.77395 152.743 5.71332C152.675 5.64303 152.606 5.57382 152.543 5.51292C152.475 5.44263 152.406 5.37342 152.344 5.31252C152.276 5.24223 152.207 5.17302 152.144 5.11212C152.076 5.04156 152.007 4.97235 151.945 4.91172C151.877 4.84143 151.808 4.77195 151.745 4.71132C151.677 4.64103 151.608 4.57182 151.545 4.51092C151.477 4.44063 151.408 4.37141 151.346 4.31025C151.278 4.24023 151.209 4.17101 151.146 4.10958C149.299 2.20027 146.827 1.14837 144.187 1.14837L134.256 1.14917C134.249 1.14917 134.243 1.15507 134.243 1.16178V35.5782C134.243 35.5814 134.245 35.5843 134.247 35.5867L136.436 37.7839C136.438 37.7863 136.441 37.7874 136.445 37.7874H147C153.021 37.7874 157.969 32.8418 157.782 26.8018C157.696 24.0413 156.563 21.4664 154.569 19.5193ZM211.177 13.0506C212.08 14.6694 212.551 16.4808 212.551 18.3662C212.551 23.4256 209.062 27.8333 204.196 29.0057C204.185 29.0084 204.174 28.9998 204.174 28.9883V9.65132C204.174 9.64113 204.183 9.63308 204.193 9.63362C205.955 9.68834 207.647 10.1629 209.166 11.0222C210.008 11.4984 210.704 12.2042 211.177 13.0506ZM201.649 6.80413H201.361V29.9283H201.649C208.001 29.928 213.169 24.7415 213.169 18.3662C213.169 11.9909 208.001 6.80413 201.649 6.80413ZM20.2118 26.4466C19.5625 31.9033 14.7798 35.8547 9.32191 35.4478C9.17115 35.4362 9.02013 35.4212 8.86857 35.4032C5.35873 34.9829 2.2982 32.7444 0.814715 29.5339L5.19969 27.6429C6.01066 29.2895 7.60828 30.4316 9.43417 30.6505C10.8773 30.8219 12.2998 30.4203 13.4399 29.5208C14.5809 28.6199 15.3042 27.3263 15.4764 25.8792C15.8452 22.7791 13.8632 20.2814 10.6565 19.8058C5.42127 19.0288 1.93682 14.5505 2.55079 9.38922C2.84616 6.90607 4.09175 4.68395 6.05824 3.13199C8.02392 1.58056 10.4673 0.890556 12.9379 1.18807C15.5865 1.50517 17.97 2.95332 19.5205 5.1757L15.5314 7.80667C14.7595 6.76549 13.6229 6.09052 12.3725 5.94055C11.1604 5.79488 9.96261 6.13344 9.00115 6.89292C8.03969 7.65214 7.4308 8.74026 7.28619 9.95689C6.97586 12.5667 8.64832 14.6694 11.3536 15.0707C17.074 15.9193 20.8821 20.8099 20.2118 26.4466ZM17.8374 17.64C16.1441 15.9273 13.9335 14.8269 11.444 14.4577C11.1467 14.4135 10.8594 14.3453 10.5849 14.2533C10.4047 14.1927 10.2665 14.047 10.2141 13.8635C10.0677 13.3503 10.0276 12.8041 10.0952 12.2345C10.2206 11.1824 10.7474 10.2413 11.5789 9.58398C12.4108 8.92698 13.4465 8.63483 14.4954 8.76011C14.802 8.79687 15.1056 8.87198 15.3978 8.98278C15.8311 9.14723 16.2144 9.42195 16.5306 9.76158L17.5575 10.8645L22.5755 7.55503L22.3945 7.27897C21.9756 6.63887 21.4822 6.0433 20.9249 5.50514C20.8602 5.43888 20.7953 5.37288 20.7351 5.31494L20.7164 5.29562C20.6544 5.23257 20.5927 5.16926 20.5253 5.10407C20.4609 5.03808 20.3959 4.97208 20.331 4.90957C20.2644 4.84116 20.1979 4.77329 20.1364 4.714C20.0685 4.64425 20.0003 4.57477 19.9367 4.5136L19.9121 4.48838C19.852 4.42695 19.7918 4.36551 19.737 4.3132L19.7181 4.29415C19.6563 4.23057 19.5943 4.16753 19.528 4.10341C19.4628 4.03661 19.3976 3.97008 19.3377 3.9124L19.3187 3.89335C19.257 3.82977 19.195 3.76672 19.138 3.712C19.0699 3.64225 19.002 3.57249 18.9384 3.51186C17.345 1.88344 15.2398 0.839852 13.0114 0.572651C10.3772 0.253941 7.77186 0.99089 5.67654 2.64453C3.58041 4.29898 2.25276 6.66811 1.93789 9.31571C1.561 12.4827 2.63232 15.5322 4.87038 17.6754L6.86654 19.6791C8.4254 21.2638 10.4641 22.2822 12.7623 22.6232C13.2995 22.7029 13.8063 22.8469 14.2735 23.053C14.4112 23.1133 14.5141 23.2316 14.5697 23.3717C14.8637 24.1143 14.9653 24.9483 14.8635 25.8057C14.7106 27.0889 14.0696 28.2349 13.0579 29.0339C12.0478 29.8314 10.7861 30.1869 9.50688 30.0353C8.96721 29.9704 8.45213 29.792 7.94641 29.5651C6.67489 28.9944 5.5159 26.8319 5.5159 26.8319L0 29.2109L0.130173 29.5143C0.704055 30.8549 1.53187 32.0503 2.58554 33.062C2.58554 33.062 4.53332 35.0191 4.5817 35.0655C6.30655 36.8133 8.58284 37.9344 10.9914 38.2225C11.1523 38.2421 11.3122 38.2574 11.4723 38.2695C11.7484 38.2901 12.0219 38.3003 12.2945 38.3003C17.7331 38.3001 22.3656 34.2349 23.021 28.724C23.4297 25.2866 22.267 21.9761 19.8306 19.6408L17.8374 17.64ZM53.4977 34.9635H37.3574V1.76915H42.3742V29.9283H53.4977V34.9635ZM45.1875 29.3086V3.35358L42.9917 1.14917H36.7399V35.5833L38.936 37.7874H56.3115V31.5127L54.1152 29.3086H45.1875ZM190.973 34.9635H185.956C185.902 26.2156 183.384 21.2451 181.791 20.1596L181.718 20.11L176.546 20.106V35.1135H171.529V1.91858H180.855L180.951 1.91805C185.916 1.97036 189.94 6.04062 189.94 11.0364C189.94 13.5397 188.793 16.1009 186.872 17.8879L186.686 18.0609L186.833 18.2683C189.429 21.9034 190.933 27.9761 190.973 34.9635ZM192.754 13.2406C192.754 10.59 191.706 8.10982 189.81 6.26382C189.742 6.19327 189.673 6.12405 189.61 6.06315C189.542 5.99286 189.474 5.92365 189.411 5.86275C189.343 5.79273 189.274 5.72379 189.211 5.66235C189.143 5.59233 189.074 5.52312 189.011 5.46168C188.943 5.39166 188.875 5.32245 188.812 5.26155C188.744 5.19099 188.675 5.12205 188.612 5.06088C188.544 4.99059 188.475 4.92165 188.412 4.86075C188.344 4.79019 188.276 4.72151 188.213 4.66088C188.145 4.59059 188.076 4.52138 188.013 4.45994C187.945 4.38939 187.876 4.32071 187.813 4.25981C185.967 2.34997 183.495 1.29806 180.855 1.29806L170.912 1.29914V35.7329L173.108 37.9374H179.359V22.9304H182.715C182.939 22.9304 183.141 23.061 183.233 23.2657C184.016 25.0143 185.34 28.9107 185.34 35.2525V35.5833L187.536 37.7874H193.787V37.4569C193.787 30.3696 192.299 24.1588 189.696 20.3471C191.615 18.4564 192.754 15.8214 192.754 13.2406ZM201.649 34.9635H196.344V1.76915L201.648 1.76889C210.767 1.76889 218.185 9.21457 218.185 18.3662C218.185 27.5179 210.767 34.9635 201.649 34.9635ZM220.96 19.3932C220.678 15.1952 218.895 11.2942 215.867 8.30405L213.872 6.30218C210.616 2.9788 206.275 1.14917 201.649 1.14917H195.744C195.734 1.14917 195.726 1.15695 195.726 1.16688V35.576C195.726 35.5806 195.728 35.5849 195.731 35.5883L197.917 37.7823C197.921 37.7858 197.925 37.7874 197.93 37.7874H203.583C213.677 37.7874 221.637 29.5015 220.96 19.3932ZM117.505 34.9635H112.488C112.434 26.2156 109.916 21.2448 108.323 20.1596L108.25 20.11L108.143 20.1103L103.078 20.106V35.1135H98.0611V1.91858H107.387L107.483 1.91805C112.449 1.97036 116.472 6.04062 116.472 11.0364C116.472 13.5397 115.325 16.1009 113.404 17.8879L113.218 18.0609L113.366 18.2683C115.962 21.9034 117.465 27.9761 117.505 34.9635ZM119.286 13.2406C119.286 10.5903 118.238 8.10982 116.342 6.26355C116.275 6.19327 116.206 6.12432 116.143 6.06288C116.075 5.99286 116.006 5.92392 115.943 5.86248C115.875 5.79246 115.806 5.72352 115.743 5.66235C115.676 5.59206 115.607 5.52285 115.544 5.46195C115.476 5.39193 115.407 5.32272 115.344 5.26128C115.276 5.19099 115.208 5.12231 115.144 5.06061C115.076 4.99059 115.007 4.92165 114.945 4.86128C114.877 4.79046 114.808 4.72151 114.745 4.66061C114.677 4.59033 114.608 4.52111 114.545 4.46021C114.478 4.38993 114.409 4.32071 114.346 4.25954C112.499 2.34997 110.028 1.29806 107.387 1.29806L97.4437 1.29914V35.7329L99.6398 37.9374H105.892V22.9304H109.245C109.471 22.9304 109.674 23.0618 109.766 23.2679C110.549 25.0178 111.872 28.9134 111.872 35.2525V35.5833L114.068 37.7874H120.32V37.4569C120.32 30.3696 118.832 24.1588 116.229 20.3471C118.148 18.4564 119.286 15.8214 119.286 13.2406ZM25.5181 34.9638H30.535V1.76915H25.5181V34.9638ZM24.9007 1.14917V35.5833L27.097 37.7874H33.3488V3.35358L31.1527 1.14917H24.9007ZM110.76 10.3137C110.812 10.5525 110.838 10.7942 110.838 11.0364C110.838 12.8655 109.101 14.411 108.192 14.4513H105.892V9.77768H109.583L109.643 9.77741C109.865 9.78143 110.086 9.80746 110.306 9.85575C110.532 9.90564 110.711 10.0867 110.76 10.3137ZM107.388 6.95302L103.078 6.95382V15.071H107.888V15.0766L108.18 15.0718C108.834 15.0605 109.651 14.5881 110.313 13.8388C110.74 13.3557 111.455 12.3496 111.455 11.0364C111.455 8.78479 109.63 6.95302 107.388 6.95302ZM149.059 23.4092C149.245 23.8999 149.339 24.4118 149.339 24.9349C149.339 27.3464 147.384 29.3086 144.975 29.3086H142.704C142.697 29.3086 142.691 29.3029 142.691 29.2962V22.7927C142.691 22.7858 142.697 22.7804 142.704 22.7804H147.171C147.703 22.7804 148.222 22.8767 148.719 23.068C148.876 23.1283 148.999 23.2518 149.059 23.4092ZM144.975 19.9565H139.878V29.9283H144.981C147.724 29.9283 149.956 27.6885 149.956 24.9349C149.956 22.1899 147.722 19.9565 144.975 19.9565ZM60.9459 35.6216L50.8729 1.76889H56.0557L60.9448 20.0738L65.8315 1.76889H71.0144L60.9459 35.6216ZM65.3576 1.14917L61.7483 14.6702L58.7255 3.35358L56.5291 1.14917H50.0437L60.9462 37.7877L63.1423 39.9913L74.0391 3.35358L71.8427 1.14917H65.3576ZM91.8925 6.80413H80.7687V14.9253H87.5399V19.9606H80.7687V29.9283H91.8925V34.9635H75.7519V1.76915H91.8925V6.80413ZM75.1344 1.14917V35.5833L77.3305 37.7874H94.706V31.5127L92.5099 29.3086H83.5823V22.7844H90.3534V16.51L88.157 14.3056H83.5823V9.62825H94.706V3.35358L92.5099 1.14917H75.1344ZM144.714 14.3013H142.704C142.697 14.3013 142.691 14.296 142.691 14.2892V9.64059C142.691 9.63388 142.697 9.62825 142.704 9.62825H146.456C146.677 9.63281 146.897 9.65991 147.115 9.70819C147.335 9.75756 147.509 9.93435 147.558 10.1559C147.611 10.3971 147.638 10.6415 147.638 10.8867C147.638 12.5806 146.383 14.0443 144.716 14.3011C144.715 14.3013 144.714 14.3013 144.714 14.3013ZM144.781 14.9181C146.762 14.6275 148.255 12.8945 148.255 10.8865C148.255 8.6351 146.43 6.80359 144.187 6.80332L139.878 6.80413V14.921H144.76L144.781 14.9181Z" fill="#003B5C"/>
</svg>
