<svg width="24" height="24" viewBox="0 0 24 24" fill="none" xmlns="http://www.w3.org/2000/svg">
<mask id="mask0" mask-type="alpha" maskUnits="userSpaceOnUse" x="2" y="5" width="18" height="12">
<path fill-rule="evenodd" clip-rule="evenodd" d="M2 5.30005H19.795V16.5395H2V5.30005Z" fill="white"/>
</mask>
<g mask="url(#mask0)">
<path fill-rule="evenodd" clip-rule="evenodd" d="M5.59545 16.5395H17.1689C18.6169 16.5395 19.7949 15.2825 19.7949 13.738C19.7949 13.7005 19.7939 13.6625 19.7919 13.6255L19.7829 13.625C19.7834 13.612 19.7839 13.598 19.7839 13.5845C19.7839 13.5435 19.7824 13.5015 19.7799 13.461C19.7689 13.3465 19.7534 13.2395 19.7324 13.1385L19.7054 13.007C19.5564 12.4495 19.2324 12.0125 19.0924 11.842C18.5934 11.266 17.9174 10.9445 17.1889 10.9385L17.0759 10.938L17.0644 10.818C16.8774 8.88955 15.3639 7.43505 13.5434 7.43505C13.3319 7.43505 13.1164 7.45655 12.9024 7.49805L12.8189 7.51405L12.7729 7.43805C12.5129 7.00105 12.1839 6.61305 11.7939 6.28605L11.7254 6.22805L11.7279 6.22005C11.5369 6.06755 11.3289 5.92855 11.1069 5.80705L11.0174 5.76255C10.4284 5.45605 9.79995 5.30005 9.14895 5.30005C7.17345 5.30005 5.41745 6.79105 4.97295 8.84455L4.95445 8.92905L4.87495 8.94605C3.18195 9.30855 1.99995 10.854 1.99995 12.704C1.99995 14.819 3.61295 16.5395 5.59545 16.5395Z" fill="#E74832"/>
</g>
<path fill-rule="evenodd" clip-rule="evenodd" d="M19.8701 10.4337L18.9486 10.0452C19.1171 9.64666 19.2021 9.22416 19.2021 8.78966C19.2021 7.01216 17.7556 5.56616 15.9781 5.56616C15.1166 5.56616 14.3846 5.82916 13.9171 6.30766L13.2021 5.60866C13.8591 4.93616 14.8451 4.56616 15.9781 4.56616C18.3076 4.56616 20.2021 6.46066 20.2021 8.78966C20.2021 9.35916 20.0901 9.91166 19.8701 10.4337Z" fill="#003B5C"/>
<path fill-rule="evenodd" clip-rule="evenodd" d="M12.5825 5.03284L11.383 3.70284L12.1255 3.03284L13.325 4.36284L12.5825 5.03284Z" fill="#003B5C"/>
<mask id="mask1" mask-type="alpha" maskUnits="userSpaceOnUse" x="2" y="2" width="22" height="21">
<path fill-rule="evenodd" clip-rule="evenodd" d="M2 22.1172H23.0555V2.00024H2V22.1172Z" fill="white"/>
</mask>
<g mask="url(#mask1)">
<path fill-rule="evenodd" clip-rule="evenodd" d="M16.441 3.53924H17.441V2.00024H16.441V3.53924Z" fill="#003B5C"/>
<path fill-rule="evenodd" clip-rule="evenodd" d="M20.5749 5.87159L19.8679 5.16459L21.1664 3.86609L21.8734 4.57309L20.5749 5.87159Z" fill="#003B5C"/>
<path fill-rule="evenodd" clip-rule="evenodd" d="M21.0035 8.97925H23.0555V7.97925H21.0035V8.97925Z" fill="#003B5C"/>
<path fill-rule="evenodd" clip-rule="evenodd" d="M3.4216 19.8556L2.7146 19.1486L4.5641 17.2991L5.2711 18.0061L3.4216 19.8556Z" fill="#003B5C"/>
<path fill-rule="evenodd" clip-rule="evenodd" d="M14.5932 19.8556L13.8862 19.1486L15.7357 17.2991L16.4427 18.0061L14.5932 19.8556Z" fill="#003B5C"/>
<path fill-rule="evenodd" clip-rule="evenodd" d="M4.9824 22.1172L4.2754 21.4102L8.3874 17.2987L9.0944 18.0057L4.9824 22.1172Z" fill="#003B5C"/>
<path fill-rule="evenodd" clip-rule="evenodd" d="M9.0942 22.1172L8.3872 21.4102L12.4982 17.2987L13.2052 18.0057L9.0942 22.1172Z" fill="#003B5C"/>
</g>
</svg>
